# ProBuilder 5.0.7
# https://unity3d.com/unity/features/worldbuilding/probuilder
# 6/25/2023 10:06:35 AM

mtllib ./Collider.mtl
o Collider

g Collider
v 0.7947845 -1.676381E-08 0.06565762
v 0.09179521 -1.676381E-08 0.06565762
v 0.7947845 1.176458 -0.0366106
v 0.09179521 1.176458 -0.0366106
v 0.09179521 -1.676381E-08 -1.375592
v 0.09179521 1.176458 -1.261318
v 0.7947845 -1.676381E-08 -1.375592
v 0.7947845 1.176458 -1.261318

vt 0.7947845 -0.005686119
vt 0.09179521 -0.005686119
vt 0.7947845 1.175208
vt 0.09179521 1.175208
vt 0.06565762 -1.676381E-08
vt -1.375592 -1.676381E-08
vt -0.0366106 1.176458
vt -1.261318 1.176458
vt -0.09179521 -0.1329908
vt -0.7947845 -0.1329908
vt -0.09179521 1.049004
vt -0.7947845 1.049004
vt 1.375592 -1.676381E-08
vt -0.06565762 -1.676381E-08
vt 1.261318 1.176458
vt 0.0366106 1.176458
vt -0.7947845 -0.0366106
vt -0.09179521 -0.0366106
vt -0.7947845 -1.261318
vt -0.09179521 -1.261318
vt 0.7947845 -1.375592
vt 0.09179521 -1.375592
vt 0.7947845 0.06565762
vt 0.09179521 0.06565762

vn 0 0.08660233 0.9962429
vn -1 0 0
vn 0 0.09667895 -0.9953156
vn 1 0 0
vn 0 1 0
vn 0 -1 0

usemtl Collider
f 3/3/1 4/4/1 2/2/1 1/1/1
f 4/7/2 6/8/2 5/6/2 2/5/2
f 6/11/3 8/12/3 7/10/3 5/9/3
f 8/15/4 3/16/4 1/14/4 7/13/4
f 8/19/5 6/20/5 4/18/5 3/17/5
f 1/23/6 2/24/6 5/22/6 7/21/6

